<?xml version="1.0" encoding="iso-8859-1"?>
<!-- Generator: Adobe Illustrator 25.2.1, SVG Export Plug-In . SVG Version: 6.00 Build 0)  -->
<svg version="1.1" id="Capa_1" xmlns="http://www.w3.org/2000/svg" xmlns:xlink="http://www.w3.org/1999/xlink" x="0px" y="0px"
	 viewBox="0 0 64 64" style="enable-background:new 0 0 64 64;" xml:space="preserve">
<g>
	<path style="fill:#F39200;" d="M1.879,62.237V2.448c0.582-0.05,1.178-0.075,1.776-0.075c22.547,0,53.489,34.978,58.616,59.864
		H1.879z"/>
	<path style="fill:#FFFFFF;" d="M3.656,1.998v0.75c10.388,0,23.441,7.578,35.811,20.79c11.309,12.08,19.797,26.666,22.341,38.324
		H2.254V2.795c0.461-0.031,0.931-0.047,1.402-0.047L3.656,1.998 M3.656,1.998c-0.726,0-1.443,0.036-2.152,0.109
		c0,3.404,0,60.506,0,60.506s58.304,0,61.224,0C57.918,37.866,26.658,1.997,3.656,1.998L3.656,1.998z"/>
</g>
</svg>
