<?xml version="1.0" encoding="iso-8859-1"?>
<!-- Generator: Adobe Illustrator 25.2.1, SVG Export Plug-In . SVG Version: 6.00 Build 0)  -->
<svg version="1.1" id="Capa_1" xmlns="http://www.w3.org/2000/svg" xmlns:xlink="http://www.w3.org/1999/xlink" x="0px" y="0px"
	 viewBox="0 0 64 64" style="enable-background:new 0 0 64 64;" xml:space="preserve">
<g>
	<path style="fill:#F39200;" d="M1.962,62.237C7.088,37.351,38.029,2.373,60.577,2.373c0.599,0,1.194,0.025,1.776,0.075v59.79H1.962
		z"/>
	<path style="fill:#FFFFFF;" d="M60.577,2.748c0.471,0,0.94,0.016,1.402,0.047v59.067H2.425
		c2.544-11.658,11.032-26.245,22.341-38.325C37.136,10.325,50.189,2.748,60.577,2.748 M60.577,1.998
		c-23.003,0-54.262,35.868-59.073,60.614c2.92,0,61.224,0,61.224,0s0-57.102,0-60.506C62.02,2.034,61.303,1.998,60.577,1.998
		L60.577,1.998z"/>
</g>
</svg>
