<?xml version="1.0" encoding="iso-8859-1"?>
<!-- Generator: Adobe Illustrator 25.2.1, SVG Export Plug-In . SVG Version: 6.00 Build 0)  -->
<svg version="1.1" id="Capa_1" xmlns="http://www.w3.org/2000/svg" xmlns:xlink="http://www.w3.org/1999/xlink" x="0px" y="0px"
	 viewBox="0 0 1080 1080" style="enable-background:new 0 0 1080 1080;" xml:space="preserve">
<path style="fill:#1D1D28;stroke:#000000;stroke-miterlimit:10;" d="M846.116,1080H233.884C104.713,1080,0,975.287,0,846.116
	V233.884C0,104.713,104.713,0,233.884,0h612.233C975.287,0,1080,104.713,1080,233.884v612.233
	C1080,975.287,975.287,1080,846.116,1080z"/>
<g>
	<g>
		<circle style="fill:#FFD828;" cx="772.093" cy="723.814" r="58.14"/>
		<circle style="fill:#FFD828;" cx="771.959" cy="713.25" r="58.14"/>
		<circle style="fill:#FFD728;" cx="771.826" cy="702.685" r="58.14"/>
		<circle style="fill:#FFD628;" cx="771.692" cy="692.121" r="58.14"/>
		<circle style="fill:#FFD628;" cx="771.558" cy="681.556" r="58.14"/>
		<circle style="fill:#FFD529;" cx="771.424" cy="670.992" r="58.14"/>
		<circle style="fill:#FFD429;" cx="771.291" cy="660.427" r="58.14"/>
		<circle style="fill:#FED429;" cx="771.157" cy="649.863" r="58.14"/>
		<circle style="fill:#FED329;" cx="771.023" cy="639.299" r="58.14"/>
		<circle style="fill:#FED229;" cx="770.889" cy="628.734" r="58.14"/>
		<circle style="fill:#FED229;" cx="770.756" cy="618.17" r="58.14"/>
		<circle style="fill:#FED129;" cx="770.622" cy="607.605" r="58.14"/>
		<circle style="fill:#FED029;" cx="770.488" cy="597.041" r="58.14"/>
		<circle style="fill:#FED029;" cx="770.355" cy="586.477" r="58.14"/>
		<circle style="fill:#FDCF2A;" cx="770.221" cy="575.912" r="58.14"/>
		<circle style="fill:#FDCE2A;" cx="770.087" cy="565.348" r="58.14"/>
		<circle style="fill:#FDCE2A;" cx="769.953" cy="554.783" r="58.14"/>
		<circle style="fill:#FDCD2A;" cx="769.82" cy="544.219" r="58.14"/>
		<circle style="fill:#FDCC2A;" cx="769.686" cy="533.655" r="58.14"/>
		<circle style="fill:#FDCB2A;" cx="769.552" cy="523.09" r="58.14"/>
		<circle style="fill:#FDCB2A;" cx="769.419" cy="512.526" r="58.14"/>
		<circle style="fill:#FCCA2A;" cx="769.285" cy="501.961" r="58.14"/>
		<circle style="fill:#FCC92A;" cx="769.151" cy="491.397" r="58.14"/>
		<circle style="fill:#FCC92A;" cx="769.017" cy="480.832" r="58.14"/>
		<circle style="fill:#FCC82A;" cx="768.884" cy="470.268" r="58.14"/>
		<circle style="fill:#FCC72A;" cx="768.75" cy="459.704" r="58.14"/>
		<circle style="fill:#FCC72B;" cx="768.616" cy="449.139" r="58.14"/>
		<circle style="fill:#FCC62B;" cx="768.482" cy="438.575" r="58.14"/>
		<circle style="fill:#FBC52B;" cx="768.349" cy="428.01" r="58.14"/>
		<circle style="fill:#FBC52B;" cx="768.215" cy="417.446" r="58.14"/>
		<circle style="fill:#FBC42B;" cx="768.081" cy="406.882" r="58.14"/>
		<circle style="fill:#FBC32B;" cx="767.948" cy="396.317" r="58.14"/>
		<circle style="fill:#FBC22B;" cx="767.814" cy="385.753" r="58.14"/>
		<circle style="fill:#FBC22B;" cx="767.68" cy="375.188" r="58.14"/>
		<circle style="fill:#FBC12B;" cx="767.546" cy="364.624" r="58.14"/>
		<circle style="fill:#FBC02B;" cx="767.413" cy="354.06" r="58.14"/>
		<circle style="fill:#FAC02B;" cx="767.279" cy="343.495" r="58.14"/>
		<circle style="fill:#FABF2B;" cx="767.145" cy="332.931" r="58.14"/>
		<circle style="fill:#FABE2B;" cx="767.011" cy="322.366" r="58.14"/>
		<circle style="fill:#FABD2B;" cx="766.878" cy="311.802" r="58.14"/>
		<circle style="fill:#FABD2B;" cx="766.744" cy="301.237" r="58.14"/>
		<circle style="fill:#FABC2B;" cx="766.61" cy="290.673" r="58.14"/>
		<circle style="fill:#FABB2B;" cx="766.477" cy="280.109" r="58.14"/>
		<circle style="fill:#FABA2B;" cx="766.343" cy="269.544" r="58.14"/>
		<circle style="fill:#F9BA2B;" cx="764.456" cy="269.735" r="58.14"/>
		<circle style="fill:#F9B92B;" cx="760.973" cy="279.71" r="58.14"/>
		<circle style="fill:#F9B82B;" cx="757.491" cy="289.684" r="58.14"/>
		<circle style="fill:#F9B72B;" cx="754.009" cy="299.659" r="58.14"/>
		<circle style="fill:#F9B72B;" cx="750.526" cy="309.634" r="58.14"/>
		<circle style="fill:#F9B62C;" cx="747.044" cy="319.609" r="58.14"/>
		<circle style="fill:#F9B52C;" cx="743.562" cy="329.584" r="58.14"/>
		<circle style="fill:#F8B52C;" cx="740.079" cy="339.559" r="58.14"/>
		<circle style="fill:#F8B42C;" cx="736.597" cy="349.534" r="58.14"/>
		<circle style="fill:#F8B32C;" cx="733.114" cy="359.509" r="58.14"/>
		<circle style="fill:#F8B22C;" cx="729.632" cy="369.483" r="58.14"/>
		<circle style="fill:#F8B22C;" cx="726.15" cy="379.458" r="58.14"/>
		<circle style="fill:#F8B12C;" cx="722.667" cy="389.433" r="58.14"/>
		<circle style="fill:#F8B02C;" cx="719.185" cy="399.408" r="58.14"/>
		<circle style="fill:#F7AF2C;" cx="715.703" cy="409.383" r="58.14"/>
		<circle style="fill:#F7AF2C;" cx="712.22" cy="419.358" r="58.14"/>
		<circle style="fill:#F7AE2C;" cx="708.738" cy="429.333" r="58.14"/>
		<circle style="fill:#F7AD2C;" cx="705.256" cy="439.307" r="58.14"/>
		<circle style="fill:#F7AC2C;" cx="701.773" cy="449.282" r="58.14"/>
		<circle style="fill:#F7AC2C;" cx="698.291" cy="459.257" r="58.14"/>
		<circle style="fill:#F7AB2C;" cx="694.809" cy="469.232" r="58.14"/>
		<circle style="fill:#F7AA2C;" cx="691.326" cy="479.207" r="58.14"/>
		<circle style="fill:#F6A92C;" cx="687.844" cy="489.182" r="58.14"/>
		<circle style="fill:#F6A82C;" cx="684.362" cy="499.157" r="58.14"/>
		<circle style="fill:#F6A82C;" cx="680.879" cy="509.132" r="58.14"/>
		<circle style="fill:#F6A72C;" cx="677.397" cy="519.106" r="58.14"/>
		<circle style="fill:#F6A62C;" cx="673.915" cy="529.081" r="58.14"/>
		<circle style="fill:#F6A52C;" cx="670.432" cy="539.056" r="58.14"/>
		<circle style="fill:#F5A52C;" cx="666.95" cy="549.031" r="58.14"/>
		<circle style="fill:#F5A42C;" cx="663.467" cy="559.006" r="58.14"/>
		<circle style="fill:#F5A32C;" cx="659.985" cy="568.981" r="58.14"/>
		<circle style="fill:#F5A22C;" cx="656.503" cy="578.956" r="58.14"/>
		<circle style="fill:#F5A12C;" cx="653.02" cy="588.93" r="58.14"/>
		<circle style="fill:#F5A12C;" cx="649.538" cy="598.905" r="58.14"/>
		<circle style="fill:#F5A02C;" cx="646.056" cy="608.88" r="58.14"/>
		<circle style="fill:#F49F2C;" cx="642.573" cy="618.855" r="58.14"/>
		<circle style="fill:#F49E2C;" cx="639.091" cy="628.83" r="58.14"/>
		<circle style="fill:#F49D2C;" cx="635.609" cy="638.805" r="58.14"/>
		<circle style="fill:#F49D2C;" cx="632.126" cy="648.78" r="58.14"/>
		<circle style="fill:#F49C2C;" cx="628.644" cy="658.755" r="58.14"/>
		<circle style="fill:#F49B2C;" cx="625.162" cy="668.729" r="58.14"/>
		<circle style="fill:#F49A2C;" cx="621.679" cy="678.704" r="58.14"/>
		<circle style="fill:#F3992C;" cx="618.197" cy="688.679" r="58.14"/>
		<circle style="fill:#F3992C;" cx="614.715" cy="698.654" r="58.14"/>
		<circle style="fill:#F3982C;" cx="611.232" cy="708.629" r="58.14"/>
		<circle style="fill:#F3972C;" cx="607.75" cy="718.604" r="58.14"/>
		<circle style="fill:#F3962C;" cx="604.268" cy="728.579" r="58.14"/>
		<circle style="fill:#F3952C;" cx="600.785" cy="738.553" r="58.14"/>
		<circle style="fill:#F3952C;" cx="597.303" cy="748.528" r="58.14"/>
		<circle style="fill:#F2942C;" cx="593.82" cy="758.503" r="58.14"/>
		<circle style="fill:#F2932C;" cx="590.338" cy="768.478" r="58.14"/>
		<circle style="fill:#F2922C;" cx="586.856" cy="778.453" r="58.14"/>
		<circle style="fill:#F2912B;" cx="583.373" cy="788.428" r="58.14"/>
		<circle style="fill:#F2902B;" cx="579.891" cy="798.403" r="58.14"/>
		<circle style="fill:#F2902B;" cx="576.409" cy="808.377" r="58.14"/>
		<circle style="fill:#F28F2B;" cx="572.926" cy="818.352" r="58.14"/>
		<circle style="fill:#F18E2B;" cx="569.444" cy="828.327" r="58.14"/>
		<circle style="fill:#F18D2B;" cx="565.962" cy="838.302" r="58.14"/>
		<circle style="fill:#F18C2B;" cx="562.479" cy="848.277" r="58.14"/>
		<circle style="fill:#F18B2B;" cx="558.72" cy="849.948" r="58.14"/>
		<circle style="fill:#F18B2B;" cx="554.582" cy="840.227" r="58.14"/>
		<circle style="fill:#F18A2B;" cx="550.443" cy="830.506" r="58.14"/>
		<circle style="fill:#F1892B;" cx="546.305" cy="820.785" r="58.14"/>
		<circle style="fill:#F0882B;" cx="542.166" cy="811.065" r="58.14"/>
		<circle style="fill:#F0872B;" cx="538.027" cy="801.344" r="58.14"/>
		<circle style="fill:#F0862B;" cx="533.889" cy="791.623" r="58.14"/>
		<circle style="fill:#F0862B;" cx="529.75" cy="781.902" r="58.14"/>
		<circle style="fill:#F0852B;" cx="525.611" cy="772.181" r="58.14"/>
		<circle style="fill:#F0842B;" cx="521.473" cy="762.46" r="58.14"/>
		<circle style="fill:#F0832B;" cx="517.334" cy="752.739" r="58.14"/>
		<circle style="fill:#F0822B;" cx="513.196" cy="743.018" r="58.14"/>
		<circle style="fill:#EF812B;" cx="509.057" cy="733.297" r="58.14"/>
		<circle style="fill:#EF812B;" cx="504.918" cy="723.576" r="58.14"/>
		<circle style="fill:#EF802B;" cx="500.78" cy="713.855" r="58.14"/>
		<circle style="fill:#EF7F2B;" cx="496.641" cy="704.134" r="58.14"/>
		<circle style="fill:#EF7E2B;" cx="492.502" cy="694.413" r="58.14"/>
		<circle style="fill:#EF7D2B;" cx="488.364" cy="684.692" r="58.14"/>
		<circle style="fill:#EF7C2B;" cx="484.225" cy="674.971" r="58.14"/>
		<circle style="fill:#EE7B2B;" cx="480.087" cy="665.251" r="58.14"/>
		<circle style="fill:#EE7B2B;" cx="475.948" cy="655.53" r="58.14"/>
		<circle style="fill:#EE7A2B;" cx="471.809" cy="645.809" r="58.14"/>
		<circle style="fill:#EE792B;" cx="467.671" cy="636.088" r="58.14"/>
		<circle style="fill:#EE782A;" cx="463.532" cy="626.367" r="58.14"/>
		<circle style="fill:#EE772A;" cx="459.394" cy="616.646" r="58.14"/>
		<circle style="fill:#EE762A;" cx="455.255" cy="606.925" r="58.14"/>
		<circle style="fill:#EE752A;" cx="451.116" cy="597.204" r="58.14"/>
		<circle style="fill:#EE752A;" cx="446.978" cy="587.483" r="58.14"/>
		<circle style="fill:#ED742A;" cx="442.839" cy="577.762" r="58.14"/>
		<circle style="fill:#ED732A;" cx="438.7" cy="568.041" r="58.14"/>
		<circle style="fill:#ED722A;" cx="434.562" cy="558.32" r="58.14"/>
		<circle style="fill:#ED712A;" cx="430.423" cy="548.599" r="58.14"/>
		<circle style="fill:#ED702A;" cx="426.285" cy="538.878" r="58.14"/>
		<circle style="fill:#ED6F2A;" cx="422.146" cy="529.157" r="58.14"/>
		<circle style="fill:#ED6E2A;" cx="418.007" cy="519.437" r="58.14"/>
		<circle style="fill:#ED6D2A;" cx="413.869" cy="509.716" r="58.14"/>
		<circle style="fill:#EC6C2A;" cx="409.73" cy="499.995" r="58.14"/>
		<circle style="fill:#EC6B2A;" cx="405.592" cy="490.274" r="58.14"/>
		<circle style="fill:#EC6A2A;" cx="401.453" cy="480.553" r="58.14"/>
		<circle style="fill:#EC6A2A;" cx="397.314" cy="470.832" r="58.14"/>
		<circle style="fill:#EC692A;" cx="393.176" cy="461.111" r="58.14"/>
		<circle style="fill:#EC682A;" cx="389.037" cy="451.39" r="58.14"/>
		<circle style="fill:#EC672A;" cx="384.898" cy="441.669" r="58.14"/>
		<circle style="fill:#EC6629;" cx="380.76" cy="431.948" r="58.14"/>
		<circle style="fill:#EB6529;" cx="376.621" cy="422.227" r="58.14"/>
		<circle style="fill:#EB6429;" cx="372.483" cy="412.506" r="58.14"/>
		<circle style="fill:#EB6329;" cx="368.344" cy="402.785" r="58.14"/>
		<circle style="fill:#EB6229;" cx="364.205" cy="393.064" r="58.14"/>
		<circle style="fill:#EB6129;" cx="360.067" cy="383.343" r="58.14"/>
		<circle style="fill:#EB6129;" cx="355.928" cy="373.623" r="58.14"/>
		<circle style="fill:#EB6029;" cx="351.79" cy="363.902" r="58.14"/>
		<circle style="fill:#EB5F29;" cx="347.651" cy="354.181" r="58.14"/>
		<circle style="fill:#EB5E29;" cx="343.512" cy="344.46" r="58.14"/>
		<circle style="fill:#EA5D29;" cx="339.374" cy="334.739" r="58.14"/>
		<circle style="fill:#EA5C29;" cx="335.235" cy="325.018" r="58.14"/>
		<circle style="fill:#EA5B28;" cx="331.096" cy="315.297" r="58.14"/>
		<circle style="fill:#EA5A28;" cx="326.958" cy="305.576" r="58.14"/>
		<circle style="fill:#EA5928;" cx="322.819" cy="295.855" r="58.14"/>
		<circle style="fill:#EA5828;" cx="318.681" cy="286.134" r="58.14"/>
		<circle style="fill:#EA5728;" cx="314.542" cy="276.413" r="58.14"/>
		<circle style="fill:#EA5628;" cx="310.466" cy="266.995" r="58.14"/>
		<circle style="fill:#E95528;" cx="310.544" cy="277.56" r="58.14"/>
		<circle style="fill:#E95428;" cx="310.621" cy="288.125" r="58.14"/>
		<circle style="fill:#E95328;" cx="310.699" cy="298.69" r="58.14"/>
		<circle style="fill:#E95228;" cx="310.776" cy="309.255" r="58.14"/>
		<circle style="fill:#E95128;" cx="310.854" cy="319.82" r="58.14"/>
		<circle style="fill:#E95028;" cx="310.931" cy="330.385" r="58.14"/>
		<circle style="fill:#E94F27;" cx="311.009" cy="340.95" r="58.14"/>
		<circle style="fill:#E94E27;" cx="311.086" cy="351.515" r="58.14"/>
		<circle style="fill:#E94D27;" cx="311.164" cy="362.08" r="58.14"/>
		<circle style="fill:#E84C27;" cx="311.241" cy="372.645" r="58.14"/>
		<circle style="fill:#E84B27;" cx="311.319" cy="383.209" r="58.14"/>
		<circle style="fill:#E84A27;" cx="311.396" cy="393.774" r="58.14"/>
		<circle style="fill:#E84827;" cx="311.474" cy="404.339" r="58.14"/>
		<circle style="fill:#E84727;" cx="311.551" cy="414.904" r="58.14"/>
		<circle style="fill:#E84627;" cx="311.629" cy="425.469" r="58.14"/>
		<circle style="fill:#E84527;" cx="311.706" cy="436.034" r="58.14"/>
		<circle style="fill:#E84427;" cx="311.784" cy="446.599" r="58.14"/>
		<circle style="fill:#E84327;" cx="311.861" cy="457.164" r="58.14"/>
		<circle style="fill:#E74226;" cx="311.939" cy="467.729" r="58.14"/>
		<circle style="fill:#E74126;" cx="312.016" cy="478.294" r="58.14"/>
		<circle style="fill:#E74026;" cx="312.094" cy="488.859" r="58.14"/>
		<circle style="fill:#E73F26;" cx="312.171" cy="499.424" r="58.14"/>
		<circle style="fill:#E73E26;" cx="312.249" cy="509.989" r="58.14"/>
		<circle style="fill:#E73C26;" cx="312.326" cy="520.554" r="58.14"/>
		<circle style="fill:#E73B26;" cx="312.404" cy="531.119" r="58.14"/>
		<circle style="fill:#E73A26;" cx="312.481" cy="541.684" r="58.14"/>
		<circle style="fill:#E73926;" cx="312.559" cy="552.249" r="58.14"/>
		<circle style="fill:#E73826;" cx="312.636" cy="562.814" r="58.14"/>
		<circle style="fill:#E63726;" cx="312.714" cy="573.379" r="58.14"/>
		<circle style="fill:#E63626;" cx="312.791" cy="583.944" r="58.14"/>
		<circle style="fill:#E63526;" cx="312.869" cy="594.509" r="58.14"/>
		<circle style="fill:#E63425;" cx="312.946" cy="605.074" r="58.14"/>
		<circle style="fill:#E63325;" cx="313.024" cy="615.639" r="58.14"/>
		<circle style="fill:#E63225;" cx="313.101" cy="626.204" r="58.14"/>
		<circle style="fill:#E63125;" cx="313.179" cy="636.769" r="58.14"/>
		<circle style="fill:#E63025;" cx="313.256" cy="647.334" r="58.14"/>
		<circle style="fill:#E62E25;" cx="313.334" cy="657.899" r="58.14"/>
		<circle style="fill:#E62D25;" cx="313.411" cy="668.464" r="58.14"/>
		<circle style="fill:#E62C25;" cx="313.489" cy="679.029" r="58.14"/>
		<circle style="fill:#E52B25;" cx="313.566" cy="689.594" r="58.14"/>
		<circle style="fill:#E52925;" cx="313.644" cy="700.159" r="58.14"/>
		<circle style="fill:#E52825;" cx="313.721" cy="710.724" r="58.14"/>
		<circle style="fill:#E52724;" cx="313.798" cy="721.289" r="58.14"/>
		<circle style="fill:#E52524;" cx="313.876" cy="731.854" r="58.14"/>
		<circle style="fill:#E52424;" cx="313.953" cy="742.419" r="58.14"/>
	</g>
</g>
</svg>
